<?xml version="1.0" encoding="UTF-8"?>
<svg id="Layer_1" data-name="Layer 1" xmlns="http://www.w3.org/2000/svg" version="1.1" viewBox="0 0 308.2 52.7">
  <defs>
    <style>
      .cls-1 {
        isolation: isolate;
      }

      .cls-2 {
        fill: #333;
      }

      .cls-2, .cls-3 {
        stroke-width: 0px;
      }

      .cls-3 {
        fill: #fff;
      }
    </style>
  </defs>
  <g class="cls-1">
    <path class="cls-2" d="M7.8,38.8c2.8,3,6.4,4.5,10.8,4.5s3.6-.4,4.9-1.2,1.9-1.9,1.9-3.3-.4-2.2-1.1-2.7c-.8-.5-1.8-.8-3.1-.8l-6.1-.5c-2.9-.3-5.2-1.3-7-3s-2.8-4-2.8-7,1.3-6.3,3.7-8.2c2.4-1.8,5.4-2.7,9-2.7s3,.1,4.2.3c1.3.2,2.4.5,3.5,1,2.1.9,4,2.1,5.7,3.6l-4.3,5.1c-1.3-1-2.7-1.8-4.2-2.4s-3.1-.9-5-.9-3.7.4-4.5,1.2c-.9.8-1.4,1.8-1.4,3.1s.3,1.5,1,2.1c.7.7,1.8,1.1,3.5,1.3l5.7.4c3.6.3,6.1,1.4,7.7,3.3,1.5,1.9,2.2,4.3,2.2,7.2s-1.4,6.1-4,7.9c-2.6,1.9-6,2.9-10.1,2.9s-10.6-2.1-15-6.3c0,0,4.8-4.9,4.8-4.9Z"/>
    <path class="cls-2" d="M40.2,14.3h6.9v21c0,2.4.6,4.2,1.9,5.6,1.3,1.3,2.9,2,4.9,2s3.6-.7,4.8-2c1.3-1.3,1.9-3.2,1.9-5.6V14.3h6.9v35.3h-6.9v-3.8h0c-2.3,2.8-5.2,4.2-8.8,4.2s-5.4-1.1-7.7-3.2c-2.5-2-3.7-5-3.8-9,0,0,0-23.5,0-23.5Z"/>
    <path class="cls-2" d="M77.6,0h6.9v18c1.2-1.2,2.6-2.3,4.1-3.1,1.4-.7,2.9-1.1,4.7-1.1,4.2.1,7.2,1.7,9.2,4.6.9,1.1,1.6,2.6,1.9,4.4s.5,4.8.5,9-.2,7.2-.5,9c-.4,1.9-1,3.4-1.9,4.5-.9,1.4-2.2,2.4-3.7,3.3-1.5.8-3.3,1.3-5.5,1.3-3.6,0-6.5-1.5-8.8-4.1v3.7h-6.9s0-49.5,0-49.5ZM91.2,20.9c-1.5,0-2.8.3-3.7,1-.9.7-1.6,1.5-2.1,2.6-.4,1.1-.7,2.2-.8,3.5,0,1.2-.2,2.6-.2,3.9s0,2.5.2,3.8c0,1.3.4,2.5.8,3.6s1.1,1.9,2.1,2.6c.9.7,2.1,1,3.7,1s2.9-.3,3.9-1c.9-.7,1.6-1.5,2-2.5.4-1.1.7-2.3.9-3.6v-8c-.2-1.2-.5-2.4-.9-3.5s-1.1-1.9-2-2.5-2.2-.9-3.9-.9Z"/>
    <path class="cls-2" d="M113.7,0h6.9v40.5c0,1.6.9,2.4,2.6,2.4h2.4v6.7h-3.1c-2.5,0-4.6-.6-6.2-1.9-1.7-1.3-2.6-3.5-2.6-6.6,0,0,0-41.1,0-41.1Z"/>
    <path class="cls-2" d="M131.8,0h6.9v7.1h-6.9V0ZM131.8,14.3h6.9v35.3h-6.9V14.3Z"/>
    <path class="cls-2" d="M148,14.3h6.9v3.7h.1c2.3-2.8,5.4-4.2,9.2-4.2s4.4.5,5.9,1.3c1.5.9,2.8,2,4,3.4,2.8-3.1,6.5-4.7,11.1-4.6,2.9,0,5.6,1,8,3.1s3.6,5.1,3.7,9.2v23.4h-6.9v-21c0-2.5-.7-4.4-2-5.6-1.3-1.3-3-2-5.1-2s-3.8.7-5.1,2c-1.4,1.3-2,3.2-2,5.6v21h-6.9v-21c0-2.5-.7-4.4-2-5.6-1.3-1.3-3-2-5.1-2s-3.8.7-5.1,2c-1.4,1.3-2.1,3.2-2.1,5.6v21h-6.9V14.3h.3Z"/>
    <path class="cls-2" d="M207.8,0h6.9v7.1h-6.9V0ZM207.8,14.3h6.9v35.3h-6.9V14.3Z"/>
    <path class="cls-2" d="M224.3,14.3h6.9v3.7h.1c2.3-2.8,5.2-4.2,8.9-4.2s5.4,1,7.8,3.1c2.3,2.1,3.5,5.1,3.7,9.2v23.4h-6.9v-21c0-2.5-.6-4.4-1.9-5.6-1.3-1.3-2.9-2-4.8-2s-3.6.7-4.9,2c-1.3,1.3-1.9,3.2-1.9,5.6v21h-6.9V14.3h-.1Z"/>
    <path class="cls-2" d="M279.6,46.4h-.1c-.6,1.2-1.6,2.1-3,2.6-1.3.6-3.1.9-5.5.9-3.8,0-6.8-1.1-8.8-3.1-2.2-2-3.3-4.5-3.3-7.6s.9-5.4,2.8-7.4c1.9-2,4.6-3,8.3-3.1h9.5v-3.7c0-3.1-2.3-4.6-7-4.5-1.7,0-3.1.2-4,.5-1,.4-1.8,1.2-2.4,2.2l-5.4-4.3c2.6-3.5,6.5-5.2,11.5-5.1,4.3,0,7.7.8,10.3,2.5,2.6,1.8,3.9,4.8,3.9,9.1v24.1h-6.9v-3.1h.1ZM279.6,34.6h-8.2c-4,0-6,1.5-5.9,4.3,0,1.2.5,2.2,1.5,3.1,1,.9,2.6,1.4,4.9,1.4s4.9-.3,6.1-1.1c1.1-.7,1.6-2.4,1.6-5.1v-2.6Z"/>
    <path class="cls-2" d="M296.4,0h6.9v40.5c0,1.6.9,2.4,2.6,2.4h2.4v6.7h-3.1c-2.5,0-4.6-.6-6.2-1.9-1.7-1.3-2.6-3.5-2.6-6.6V0h0Z"/>
  </g>
  <g class="cls-1">
    <path class="cls-3" d="M4.8,41.5c2.8,3,6.4,4.5,10.8,4.5s3.6-.4,4.9-1.2,1.9-1.9,1.9-3.3-.4-2.2-1.1-2.7c-.8-.5-1.8-.8-3.1-.8l-6.1-.5c-2.9-.3-5.2-1.3-7-3-1.8-1.7-2.8-4-2.8-7s1.3-6.3,3.7-8.2c2.4-1.8,5.4-2.7,9-2.7s3,.1,4.2.3c1.3.2,2.4.5,3.5,1,2.1.9,4.1,2.3,4.4,2.6l-4.3,5.1c-1.3-1-1.4-.8-2.9-1.4s-3.1-.9-5-.9-3.7.4-4.5,1.2c-.9.8-1.4,1.8-1.4,3.1s.3,1.5,1,2.1c.7.7,1.8,1.1,3.5,1.3l5.7.4c3.6.3,6.1,1.4,7.7,3.3,1.5,1.9,2.2,4.3,2.2,7.2s-1.4,6.1-4,7.9c-2.6,1.9-6,2.9-10.1,2.9S4.4,50.6,0,46.4C0,46.4,4.8,41.5,4.8,41.5Z"/>
    <path class="cls-3" d="M37.2,17h6.9v21c0,2.4.6,4.2,1.9,5.6,1.3,1.3,2.9,2,4.9,2s3.6-.7,4.8-2c1.3-1.3,1.9-3.2,1.9-5.6v-21h6.9v35.3h-6.9v-3.8h0c-2.3,2.8-5.2,4.2-8.8,4.2s-5.4-1.1-7.7-3.2c-2.5-2-3.7-5-3.8-9,0,0,0-23.5,0-23.5Z"/>
    <path class="cls-3" d="M74.6,2.8h6.9v18c1.2-1.2,2.6-2.3,4.1-3.1,1.4-.7,2.9-1.1,4.7-1.1,4.2.1,7.2,1.7,9.2,4.6.9,1.1,1.6,2.6,1.9,4.4s.5,4.8.5,9-.2,7.2-.5,9c-.4,1.9-1,3.4-1.9,4.5-.9,1.4-2.2,2.4-3.7,3.3-1.5.8-3.3,1.3-5.5,1.3-3.6,0-6.5-1.5-8.8-4.1v3.7h-6.9s0-49.5,0-49.5ZM88.2,23.6c-1.5,0-2.8.3-3.7,1-.9.7-1.6,1.5-2.1,2.6-.4,1.1-.7,2.2-.8,3.5,0,1.2-.2,2.6-.2,3.9s0,2.5.2,3.8c0,1.3.4,2.5.8,3.6s1.1,1.9,2.1,2.6c.9.7,2.1,1,3.7,1s2.9-.3,3.9-1c.9-.7,1.6-1.5,2-2.5.4-1.1.7-2.3.9-3.6v-8c-.2-1.2-.5-2.4-.9-3.5s-1.1-1.9-2-2.5-2.2-.9-3.9-.9Z"/>
    <path class="cls-3" d="M110.7,2.8h6.9v40.5c0,1.6.9,2.4,2.6,2.4h2.4v6.7h-3.1c-2.5,0-4.6-.6-6.2-1.9-1.7-1.3-2.6-3.5-2.6-6.6,0,0,0-41.1,0-41.1Z"/>
    <path class="cls-3" d="M128.8,2.8h6.9v7.1h-6.9V2.8ZM128.8,17h6.9v35.3h-6.9V17Z"/>
    <path class="cls-3" d="M145,17h6.9v3.7h.1c2.3-2.8,5.4-4.2,9.2-4.2s4.4.5,5.9,1.3c1.5.9,2.8,2,4,3.4,2.8-3.1,6.5-4.7,11.1-4.6,2.9,0,5.6,1,8,3.1s3.6,5.1,3.7,9.2v23.4h-6.9v-21c0-2.5-.7-4.4-2-5.6-1.3-1.3-3-2-5.1-2s-3.8.7-5.1,2c-1.4,1.3-2,3.2-2,5.6v21h-6.9v-21c0-2.5-.7-4.4-2-5.6-1.3-1.3-3-2-5.1-2s-3.8.7-5.1,2c-1.4,1.3-2.1,3.2-2.1,5.6v21h-6.9V17h.3Z"/>
    <path class="cls-3" d="M204.8,2.8h6.9v7.1h-6.9V2.8ZM204.8,17h6.9v35.3h-6.9V17Z"/>
    <path class="cls-3" d="M221.3,17h6.9v3.7h.1c2.3-2.8,5.2-4.2,8.9-4.2s5.4,1,7.8,3.1c2.3,2.1,3.5,5.1,3.7,9.2v23.4h-6.9v-21c0-2.5-.6-4.4-1.9-5.6-1.3-1.3-2.9-2-4.8-2s-3.6.7-4.9,2c-1.3,1.3-1.9,3.2-1.9,5.6v21h-6.9V17h-.1Z"/>
    <path class="cls-3" d="M276.6,49.2h-.1c-.6,1.2-1.6,2.1-3,2.6-1.3.6-3.1.9-5.5.9-3.8,0-6.8-1.1-8.8-3.1-2.2-2-3.3-4.5-3.3-7.6s.9-5.4,2.8-7.4,4.6-3,8.3-3.1h9.5v-3.7c0-3.1-2.3-4.6-7-4.5-1.7,0-3.1.2-4,.5-1,.4-1.8,1.2-2.4,2.2l-5.4-4.3c2.6-3.5,6.5-5.2,11.5-5.1,4.3,0,7.7.8,10.3,2.5,2.6,1.8,3.9,4.8,3.9,9.1v24.1h-6.9v-3.1h.1ZM276.6,37.3h-8.2c-4,0-6,1.5-5.9,4.3,0,1.2.5,2.2,1.5,3.1,1,.9,2.6,1.4,4.9,1.4s4.9-.3,6.1-1.1c1.1-.7,1.6-2.4,1.6-5.1v-2.6Z"/>
    <path class="cls-3" d="M293.4,2.8h6.9v40.5c0,1.6.9,2.4,2.6,2.4h2.4v6.7h-3.1c-2.5,0-4.6-.6-6.2-1.9-1.7-1.3-2.6-3.5-2.6-6.6V2.8h0Z"/>
  </g>
</svg>