<?xml version="1.0" encoding="UTF-8"?>
<svg id="Layer_1" data-name="Layer 1" xmlns="http://www.w3.org/2000/svg" version="1.1" viewBox="0 0 425.9 88.9">
  <defs>
    <style>
      .cls-1 {
        fill: #333;
      }

      .cls-1, .cls-2 {
        stroke-width: 0px;
      }

      .cls-3 {
        isolation: isolate;
      }

      .cls-2 {
        fill: #fff;
      }
    </style>
  </defs>
  <g>
    <g class="cls-3">
      <path class="cls-1" d="M125.5,54.5c2.8,3,6.4,4.5,10.8,4.5s3.6-.4,4.9-1.2c1.3-.8,1.9-1.9,1.9-3.3s-.4-2.2-1.1-2.7c-.8-.5-1.8-.8-3.1-.8l-6.1-.5c-2.9-.3-5.2-1.3-7-3-1.8-1.7-2.8-4-2.8-7,0-3.6,1.3-6.3,3.7-8.2,2.4-1.8,5.4-2.7,9-2.7s3,.1,4.2.3c1.3.2,2.4.5,3.5,1,2.1.9,4,2.1,5.7,3.6l-4.3,5.1c-1.3-1-2.7-1.8-4.2-2.4-1.5-.6-3.1-.9-5-.9s-3.7.4-4.5,1.2c-.9.8-1.4,1.8-1.4,3.1,0,.8.3,1.5,1,2.1.7.7,1.8,1.1,3.5,1.3l5.7.4c3.6.3,6.1,1.4,7.7,3.3,1.5,1.9,2.2,4.3,2.2,7.2,0,3.4-1.4,6.1-4,7.9-2.6,1.9-6,2.9-10.1,2.9-5.6,0-10.6-2.1-15-6.3l4.8-4.9Z"/>
      <path class="cls-1" d="M157.9,30h6.9v21c0,2.4.6,4.2,1.9,5.6,1.3,1.3,2.9,2,4.9,2s3.6-.7,4.8-2c1.3-1.3,1.9-3.2,1.9-5.6v-21h6.9v35.3h-6.9v-3.8h-.1c-2.3,2.8-5.2,4.2-8.8,4.2-2.8,0-5.4-1.1-7.7-3.2-2.5-2-3.7-5-3.8-9v-23.5Z"/>
      <path class="cls-1" d="M195.3,15.7h6.9v18c1.2-1.2,2.6-2.3,4.1-3.1,1.4-.7,2.9-1.1,4.7-1.1,4.2.1,7.2,1.7,9.2,4.6.9,1.1,1.6,2.6,1.9,4.4.3,1.8.5,4.8.5,9s-.2,7.2-.5,9c-.4,1.9-1,3.4-1.9,4.5-.9,1.4-2.2,2.4-3.7,3.3-1.5.8-3.3,1.3-5.5,1.3-3.6,0-6.5-1.5-8.8-4.1v3.7h-6.9V15.7ZM208.9,36.6c-1.5,0-2.8.3-3.7,1-.9.7-1.6,1.5-2.1,2.6-.4,1.1-.7,2.2-.8,3.5-.1,1.2-.2,2.6-.2,3.9s0,2.5.2,3.8c.1,1.3.4,2.5.8,3.6.4,1.1,1.1,1.9,2.1,2.6.9.7,2.1,1,3.7,1s2.9-.3,3.9-1c.9-.7,1.6-1.5,2-2.5.4-1.1.7-2.3.9-3.6,0-1.3,0-2.6,0-3.9s0-2.8,0-4.1c-.2-1.2-.5-2.4-.9-3.5-.4-1.1-1.1-1.9-2-2.5-.9-.6-2.2-.9-3.9-.9Z"/>
      <path class="cls-1" d="M231.4,15.7h6.9v40.5c0,1.6.9,2.4,2.6,2.4h2.4v6.7h-3.1c-2.5,0-4.6-.6-6.2-1.9-1.7-1.3-2.6-3.5-2.6-6.6V15.7Z"/>
      <path class="cls-1" d="M249.5,15.7h6.9v7.1h-6.9v-7.1ZM249.5,30h6.9v35.3h-6.9V30Z"/>
      <path class="cls-1" d="M265.7,30h6.9v3.7h.1c2.3-2.8,5.4-4.2,9.2-4.2,2.4,0,4.4.5,5.9,1.3,1.5.9,2.8,2,4,3.4,2.8-3.1,6.5-4.7,11.1-4.6,2.9,0,5.6,1,8,3.1,2.4,2.1,3.6,5.1,3.7,9.2v23.4h-6.9v-21c0-2.5-.7-4.4-2-5.6-1.3-1.3-3-2-5.1-2s-3.8.7-5.1,2c-1.4,1.3-2,3.2-2,5.6v21h-6.9v-21c0-2.5-.7-4.4-2-5.6-1.3-1.3-3-2-5.1-2s-3.8.7-5.1,2c-1.4,1.3-2.1,3.2-2.1,5.6v21h-6.9V30Z"/>
      <path class="cls-1" d="M325.5,15.7h6.9v7.1h-6.9v-7.1ZM325.5,30h6.9v35.3h-6.9V30Z"/>
      <path class="cls-1" d="M342,30h6.9v3.7h.1c2.3-2.8,5.2-4.2,8.9-4.2s5.4,1,7.8,3.1c2.3,2.1,3.5,5.1,3.7,9.2v23.4h-6.9v-21c0-2.5-.6-4.4-1.9-5.6-1.3-1.3-2.9-2-4.8-2s-3.6.7-4.9,2c-1.3,1.3-1.9,3.2-1.9,5.6v21h-6.9V30Z"/>
      <path class="cls-1" d="M397.3,62.1h-.1c-.6,1.2-1.6,2.1-3,2.6-1.3.6-3.1.9-5.5.9-3.8,0-6.8-1.1-8.8-3.1-2.2-2-3.3-4.5-3.3-7.6s.9-5.4,2.8-7.4c1.9-2,4.6-3,8.3-3.1h9.5v-3.7c0-3.1-2.3-4.6-7-4.5-1.7,0-3.1.2-4,.5-1,.4-1.8,1.2-2.4,2.2l-5.4-4.3c2.6-3.5,6.5-5.2,11.5-5.1,4.3,0,7.7.8,10.3,2.5,2.6,1.8,3.9,4.8,3.9,9.1v24.1h-6.9v-3.1ZM397.3,50.3h-8.2c-4,0-6,1.5-5.9,4.3,0,1.2.5,2.2,1.5,3.1,1,.9,2.6,1.4,4.9,1.4,2.9,0,4.9-.3,6.1-1.1,1.1-.7,1.6-2.4,1.6-5.1v-2.6Z"/>
      <path class="cls-1" d="M414.1,15.7h6.9v40.5c0,1.6.9,2.4,2.6,2.4h2.4v6.7h-3.1c-2.5,0-4.6-.6-6.2-1.9-1.7-1.3-2.6-3.5-2.6-6.6V15.7Z"/>
    </g>
    <g class="cls-3">
      <path class="cls-2" d="M122.5,57.3c2.8,3,6.4,4.5,10.8,4.5s3.6-.4,4.9-1.2c1.3-.8,1.9-1.9,1.9-3.3s-.4-2.2-1.1-2.7c-.8-.5-1.8-.8-3.1-.8l-6.1-.5c-2.9-.3-5.2-1.3-7-3-1.8-1.7-2.8-4-2.8-7,0-3.6,1.3-6.3,3.7-8.2,2.4-1.8,5.4-2.7,9-2.7s3,.1,4.2.3c1.3.2,2.4.5,3.5,1,2.1.9,4,2.1,5.7,3.6l-4.3,5.1c-1.3-1-2.7-1.8-4.2-2.4-1.5-.6-3.1-.9-5-.9s-3.7.4-4.5,1.2c-.9.8-1.4,1.8-1.4,3.1,0,.8.3,1.5,1,2.1.7.7,1.8,1.1,3.5,1.3l5.7.4c3.6.3,6.1,1.4,7.7,3.3,1.5,1.9,2.2,4.3,2.2,7.2,0,3.4-1.4,6.1-4,7.9-2.6,1.9-6,2.9-10.1,2.9-5.6,0-10.6-2.1-15-6.3l4.8-4.9Z"/>
      <path class="cls-2" d="M154.9,32.8h6.9v21c0,2.4.6,4.2,1.9,5.6,1.3,1.3,2.9,2,4.9,2s3.6-.7,4.8-2c1.3-1.3,1.9-3.2,1.9-5.6v-21h6.9v35.3h-6.9v-3.8h-.1c-2.3,2.8-5.2,4.2-8.8,4.2-2.8,0-5.4-1.1-7.7-3.2-2.5-2-3.7-5-3.8-9v-23.5Z"/>
      <path class="cls-2" d="M192.3,18.5h6.9v18c1.2-1.2,2.6-2.3,4.1-3.1,1.4-.7,2.9-1.1,4.7-1.1,4.2.1,7.2,1.7,9.2,4.6.9,1.1,1.6,2.6,1.9,4.4.3,1.8.5,4.8.5,9s-.2,7.2-.5,9c-.4,1.9-1,3.4-1.9,4.5-.9,1.4-2.2,2.4-3.7,3.3-1.5.8-3.3,1.3-5.5,1.3-3.6,0-6.5-1.5-8.8-4.1v3.7h-6.9V18.5ZM205.9,39.4c-1.5,0-2.8.3-3.7,1-.9.7-1.6,1.5-2.1,2.6-.4,1.1-.7,2.2-.8,3.5-.1,1.2-.2,2.6-.2,3.9s0,2.5.2,3.8c.1,1.3.4,2.5.8,3.6.4,1.1,1.1,1.9,2.1,2.6.9.7,2.1,1,3.7,1s2.9-.3,3.9-1c.9-.7,1.6-1.5,2-2.5.4-1.1.7-2.3.9-3.6,0-1.3,0-2.6,0-3.9s0-2.8,0-4.1c-.2-1.2-.5-2.4-.9-3.5-.4-1.1-1.1-1.9-2-2.5-.9-.6-2.2-.9-3.9-.9Z"/>
      <path class="cls-2" d="M228.4,18.5h6.9v40.5c0,1.6.9,2.4,2.6,2.4h2.4v6.7h-3.1c-2.5,0-4.6-.6-6.2-1.9-1.7-1.3-2.6-3.5-2.6-6.6V18.5Z"/>
      <path class="cls-2" d="M246.5,18.5h6.9v7.1h-6.9v-7.1ZM246.5,32.8h6.9v35.3h-6.9v-35.3Z"/>
      <path class="cls-2" d="M262.7,32.8h6.9v3.7h.1c2.3-2.8,5.4-4.2,9.2-4.2,2.4,0,4.4.5,5.9,1.3,1.5.9,2.8,2,4,3.4,2.8-3.1,6.5-4.7,11.1-4.6,2.9,0,5.6,1,8,3.1,2.4,2.1,3.6,5.1,3.7,9.2v23.4h-6.9v-21c0-2.5-.7-4.4-2-5.6-1.3-1.3-3-2-5.1-2s-3.8.7-5.1,2c-1.4,1.3-2,3.2-2,5.6v21h-6.9v-21c0-2.5-.7-4.4-2-5.6-1.3-1.3-3-2-5.1-2s-3.8.7-5.1,2c-1.4,1.3-2.1,3.2-2.1,5.6v21h-6.9v-35.3Z"/>
      <path class="cls-2" d="M322.5,18.5h6.9v7.1h-6.9v-7.1ZM322.5,32.8h6.9v35.3h-6.9v-35.3Z"/>
      <path class="cls-2" d="M339,32.8h6.9v3.7h.1c2.3-2.8,5.2-4.2,8.9-4.2s5.4,1,7.8,3.1c2.3,2.1,3.5,5.1,3.7,9.2v23.4h-6.9v-21c0-2.5-.6-4.4-1.9-5.6-1.3-1.3-2.9-2-4.8-2s-3.6.7-4.9,2c-1.3,1.3-1.9,3.2-1.9,5.6v21h-6.9v-35.3Z"/>
      <path class="cls-2" d="M394.3,64.9h-.1c-.6,1.2-1.6,2.1-3,2.6-1.3.6-3.1.9-5.5.9-3.8,0-6.8-1.1-8.8-3.1-2.2-2-3.3-4.5-3.3-7.6s.9-5.4,2.8-7.4c1.9-2,4.6-3,8.3-3.1h9.5v-3.7c0-3.1-2.3-4.6-7-4.5-1.7,0-3.1.2-4,.5-1,.4-1.8,1.2-2.4,2.2l-5.4-4.3c2.6-3.5,6.5-5.2,11.5-5.1,4.3,0,7.7.8,10.3,2.5,2.6,1.8,3.9,4.8,3.9,9.1v24.1h-6.9v-3.1ZM394.3,53.1h-8.2c-4,0-6,1.5-5.9,4.3,0,1.2.5,2.2,1.5,3.1,1,.9,2.6,1.4,4.9,1.4,2.9,0,4.9-.3,6.1-1.1,1.1-.7,1.6-2.4,1.6-5.1v-2.6Z"/>
      <path class="cls-2" d="M411.1,18.5h6.9v40.5c0,1.6.9,2.4,2.6,2.4h2.4v6.7h-3.1c-2.5,0-4.6-.6-6.2-1.9-1.7-1.3-2.6-3.5-2.6-6.6V18.5Z"/>
    </g>
  </g>
  <g>
    <path class="cls-1" d="M18.6,29.1c-3.8,0-7.3.8-10.7,1.9-3.9,1.3-8,4.4-8,4.4,0,0,.2,1,3.3,1s7.3-1,9.1-1c18.5,0,33.4,15,33.4,33.4s-2.6,14.5-6.9,20.2c8-6.1,11.8-15.6,11.8-26.4s-6.3-19-11.2-24c-4.9-5-13.5-9.4-20.9-9.4Z"/>
    <path class="cls-1" d="M11,22.6C5.5,27.2.9,31.9,0,35.4c.9-.3,3.2-1.2,4.9-1.9l1.5-1.2s.3-.6.3-.7c.2-.6,1.7-4.1,4.2-9Z"/>
    <path class="cls-1" d="M34.4,0c-3,0-8,1.1-15,9.2-3.2,3.7-6.2,8.8-8.5,13.4,5-4.3,10.7-8.4,15-11.4,8.9-6.3,18.6-7.4,31.8-1.9,13.2,5.4,23.4,16.1,23.6,22.7.2,6.6-25.6,18.5-26.6,33.1-.3,5.1,2.5,9.2,6.1,12.6-2.1-3.1-3.4-6.5-3.2-10.5,1.2-17.9,37.6-22.9,29.6-39.4C80.4,13.3,55.5-.3,34.4,0Z"/>
  </g>
</svg>