<?xml version="1.0" encoding="UTF-8"?>
<svg id="Layer_1" data-name="Layer 1" xmlns="http://www.w3.org/2000/svg" version="1.1" viewBox="0 0 88.6 88.9">
  <defs>
    <style>
      .cls-1 {
        fill: #333;
        stroke-width: 0px;
      }
    </style>
  </defs>
  <path class="cls-1" d="M18.6,29.1c-3.8,0-7.3.8-10.7,1.9-3.9,1.3-8,4.4-8,4.4,0,0,.2,1,3.3,1s7.3-1,9.1-1c18.5,0,33.4,15,33.4,33.4s-2.6,14.5-6.9,20.2c8-6.1,11.8-15.6,11.8-26.4s-6.3-19-11.2-24c-4.9-5-13.5-9.4-20.9-9.4Z"/>
  <path class="cls-1" d="M11,22.6C5.5,27.2.9,31.9,0,35.4c.9-.3,3.2-1.2,4.9-1.9l1.5-1.2s.3-.6.3-.7c.2-.6,1.7-4.1,4.2-9Z"/>
  <path class="cls-1" d="M34.4,0c-3,0-8,1.1-15,9.2-3.2,3.7-6.2,8.8-8.5,13.4,5-4.3,10.7-8.4,15-11.4,8.9-6.3,18.6-7.4,31.8-1.9,13.2,5.4,23.4,16.1,23.6,22.7.2,6.6-25.6,18.5-26.6,33.1-.3,5.1,2.5,9.2,6.1,12.6-2.1-3.1-3.4-6.5-3.2-10.5,1.2-17.9,37.6-22.9,29.6-39.4C80.4,13.3,55.5-.3,34.4,0Z"/>
</svg>